# xmcd CD database file
#
# Track frame offsets:
#	150
#	16645
#	33050
#	49290
#	61572
#	77945
#	88265
#	102640
#	115872
#	132702
#	146292
#	161182
#
# Disc length: 2296 seconds
#
# Revision: 4
# Processed by: cddbd v1.5.2PL0 Copyright (c) Steve Scherf et al.
# Submitted via: CDex 1.51
#
DISCID=9d08f60c
DTITLE=Almir Sater - Almir Sater
DYEAR=2003
DGENRE=MPB
TTITLE0=Um Violeiro Toca
TTITLE1=Boiero Do Nabileque
TTITLE2=Missões Naturais
TTITLE3=Capim De Ribanceira
TTITLE4=Estradeiro
TTITLE5=Chalana
TTITLE6=Rasta Bonito
TTITLE7=Semente
TTITLE8=Boiada
TTITLE9=Flor Do Amor
TTITLE10=Capim Azul (instrumental)
TTITLE11=Tennesse Waltz
EXTD=2003 YEAR: 2003
EXTT0=
EXTT1=
EXTT2=
EXTT3=
EXTT4=
EXTT5=
EXTT6=
EXTT7=
EXTT8=
EXTT9=
EXTT10=
EXTT11=
PLAYORDER=
